# File produced by Open Asset Import Library (http://www.assimp.sf.net)
# (assimp v5.0.1588609223)

mtllib result.mtl

# 190 vertex positions
v  -0.21511355 -0.38652092 0.038496796
v  -0.17848212 -0.44016582 0.038496766
v  -0.17848212 0.71892232 0.038496777
v  -0.21511357 0.71892232 0.03849677
v  -0.25860569 -0.34045506 0.0384968
v  -0.25860572 0.71892232 0.03849677
v  -0.44335589 -0.33609039 0.066705257
v  -0.45212349 -0.27530807 0.038496811
v  -0.52295595 -0.28288704 0.038496811
v  -0.52013558 -0.34580672 0.06672731
v  -0.52295607 -0.7125805 0.038496755
v  -0.45212364 -0.72015953 0.038496755
v  -0.4600333 -0.65952045 0.06683287
v  -0.53554356 -0.64461714 0.066845194
v  -0.38129121 -0.71258056 0.038496755
v  -0.38325363 -0.64980417 0.066810831
v  -0.38129106 -0.28288704 0.038496811
v  -0.36784571 -0.35099375 0.066692948
v  -0.31528574 -0.30510747 0.038496807
v  -0.30510074 -0.38824785 0.066692218
v  -0.31528589 -0.69036019 0.038496763
v  -0.31689346 -0.61694741 0.066782445
v  -0.58896136 -0.69036007 0.038496763
v  -0.59828854 -0.60736299 0.066845953
v  -0.58896124 -0.30510741 0.038496807
v  -0.58649576 -0.37866342 0.066755712
v  -0.64564133 -0.340455 0.0384968
v  -0.68913347 -0.38652086 0.038496796
v  -0.71647382 -0.4401657 0.038496789
v  -0.6323337 -0.42965847 0.066786177
v  -0.65067095 -0.49102825 0.066813983
v  -0.72579908 -0.49773371 0.038496785
v  -0.71647382 -0.55530173 0.038496781
v  -0.63871586 -0.55342978 0.066834994
v  -0.68913358 -0.60894656 0.038496774
v  -0.64564145 -0.65501243 0.03849677
v  -0.25860578 -0.65501261 0.03849677
v  -0.21511362 -0.6089468 0.038496774
v  -0.27105552 -0.56595236 0.066751979
v  -0.18777329 -0.55530196 0.038496781
v  -0.17844796 -0.49773377 0.038496785
v  -0.25271827 -0.50458258 0.066724159
v  -0.26467335 -0.44218105 0.066703148
v  -0.17844796 -0.49773377 -0.038496714
v  -0.17848212 -0.44016582 -0.038496684
v  -0.25860569 -0.34045506 -0.038496695
v  -0.31528574 -0.30510741 -0.038496692
v  -0.38129106 -0.28288704 -0.038496692
v  -0.45212349 -0.27530807 -0.038496688
v  -0.68913347 -0.38652086 -0.038496699
v  -0.71647382 -0.4401657 -0.038496707
v  -0.72579908 -0.49773365 -0.038496714
v  -0.71647382 -0.55530167 -0.038496722
v  -0.64564145 -0.65501243 -0.038496733
v  -0.58896136 -0.69036007 -0.038496736
v  -0.52295607 -0.71258044 -0.03849674
v  -0.45212364 -0.72015947 -0.038496744
v  -0.38129121 -0.7125805 -0.03849674
v  -0.31528589 -0.69036019 -0.038496736
v  -0.18777329 -0.55530196 -0.038496722
v  -0.25860572 0.71892232 -0.038496409
v  -0.21511357 0.71892232 -0.038496409
v  -0.17848212 0.71892232 -0.038496416
v  -0.21511355 -0.38652092 -0.038496699
v  -0.44335595 -0.33609039 -0.066705175
v  -0.52013564 -0.34580672 -0.066727221
v  -0.52295595 -0.28288704 -0.038496692
v  -0.4600333 -0.65952045 -0.066832848
v  -0.5355435 -0.64461714 -0.066845179
v  -0.3832536 -0.64980412 -0.066810802
v  -0.36784568 -0.35099369 -0.066692844
v  -0.30510068 -0.38824785 -0.066692114
v  -0.31689346 -0.61694741 -0.066782393
v  -0.59828848 -0.60736305 -0.066845909
v  -0.58649576 -0.37866342 -0.066755638
v  -0.58896124 -0.30510741 -0.038496692
v  -0.64564133 -0.340455 -0.038496695
v  -0.6323337 -0.42965841 -0.066786073
v  -0.65067095 -0.49102825 -0.066813931
v  -0.63871586 -0.55342978 -0.066834942
v  -0.68913358 -0.60894656 -0.038496729
v  -0.25860578 -0.65501261 -0.038496733
v  -0.21511362 -0.60894674 -0.038496729
v  -0.27105552 -0.56595236 -0.066751949
v  -0.25271824 -0.50458258 -0.066724099
v  -0.26467335 -0.44218099 -0.066703081
v  0.68759292 -0.38652092 0.038496789
v  0.72422433 -0.44016582 0.038496759
v  0.72422433 0.71892232 0.03849677
v  0.68759292 0.71892232 0.038496763
v  0.64410079 -0.34045506 0.038496792
v  0.64410079 0.71892232 0.038496763
v  0.45111895 -0.49773377 0.091080815
v  0.36592856 -0.49773377 0.086377814
v  0.36798993 -0.56503159 0.08192037
v  0.45092407 -0.56677848 0.0864048
v  0.53639865 -0.49773377 0.086367592
v  0.53472441 -0.43043596 0.081865013
v  0.45122445 -0.42868912 0.08640489
v  0.6201129 -0.56044942 0.066822588
v  0.62590677 -0.49773383 0.069793299
v  0.53384453 -0.56503165 0.081966996
v  0.28161871 -0.43501818 0.066693321
v  0.27650982 -0.49773371 0.069839835
v  0.36809555 -0.43043596 0.081932649
v  0.45095888 -0.35615069 0.069944613
v  0.45058298 -0.27530807 0.038496803
v  0.37975055 -0.28288704 0.038496803
v  0.37361047 -0.36030275 0.066756405
v  0.3797504 -0.7125805 0.038496748
v  0.45058283 -0.72015953 0.038496748
v  0.45074293 -0.63931692 0.069944449
v  0.37352237 -0.6351648 0.066746049
v  0.52141523 -0.71258056 0.038496748
v  0.52794248 -0.63516486 0.066836081
v  0.52141541 -0.28288704 0.038496803
v  0.52841771 -0.36030281 0.066780902
v  0.5874207 -0.30510747 0.0384968
v  0.60657203 -0.37173736 0.056297399
v  0.62285686 -0.43501824 0.066116422
v  0.58742058 -0.69036019 0.038496755
v  0.60576719 -0.6237303 0.05649275
v  0.31374508 -0.69036007 0.038496755
v  0.29560626 -0.62373018 0.056282882
v  0.28158468 -0.5604493 0.066684589
v  0.3137452 -0.30510741 0.0384968
v  0.29563683 -0.3717373 0.056290321
v  0.25706518 -0.340455 0.038496792
v  0.21357299 -0.38652086 0.038496789
v  0.18623269 -0.4401657 0.038496781
v  0.17690739 -0.49773371 0.038496777
v  0.18623266 -0.55530173 0.038496774
v  0.2135729 -0.60894656 0.038496766
v  0.257065 -0.65501243 0.038496763
v  0.64410067 -0.65501261 0.038496763
v  0.68759286 -0.6089468 0.038496766
v  0.71493316 -0.55530196 0.038496774
v  0.72425854 -0.49773377 0.038496777
v  0.72425854 -0.49773377 -0.038496722
v  0.72422433 -0.44016582 -0.038496692
v  0.64410079 -0.34045506 -0.038496703
v  0.5874207 -0.30510741 -0.038496699
v  0.52141541 -0.28288704 -0.038496699
v  0.45058298 -0.27530807 -0.038496695
v  0.21357299 -0.38652086 -0.038496707
v  0.18623269 -0.4401657 -0.038496714
v  0.17690739 -0.49773365 -0.038496722
v  0.18623266 -0.55530167 -0.038496729
v  0.257065 -0.65501243 -0.03849674
v  0.31374508 -0.69036007 -0.038496744
v  0.3797504 -0.71258044 -0.038496748
v  0.45058283 -0.72015947 -0.038496751
v  0.52141523 -0.7125805 -0.038496748
v  0.58742058 -0.69036019 -0.038496744
v  0.71493316 -0.55530196 -0.038496729
v  0.64410079 0.71892232 -0.038496416
v  0.68759292 0.71892232 -0.038496416
v  0.72422433 0.71892232 -0.038496424
v  0.68759292 -0.38652092 -0.038496707
v  0.36798993 -0.56503153 -0.081920348
v  0.36592856 -0.49773371 -0.086377755
v  0.45111895 -0.49773371 -0.091080755
v  0.45092407 -0.56677842 -0.086404771
v  0.53472441 -0.43043596 -0.081864938
v  0.53639865 -0.49773377 -0.08636754
v  0.45122445 -0.42868906 -0.086404808
v  0.6201129 -0.56044942 -0.066822559
v  0.53384453 -0.56503159 -0.081966974
v  0.62590677 -0.49773377 -0.069793239
v  0.28161871 -0.43501812 -0.066693239
v  0.36809555 -0.4304359 -0.081932575
v  0.27650982 -0.49773371 -0.069839783
v  0.45095888 -0.35615069 -0.069944523
v  0.37361047 -0.36030275 -0.066756316
v  0.37975055 -0.28288704 -0.038496699
v  0.45074293 -0.63931686 -0.069944434
v  0.37352237 -0.63516474 -0.066746026
v  0.52794248 -0.6351648 -0.066836067
v  0.52841771 -0.36030275 -0.066780806
v  0.60657203 -0.3717373 -0.056297317
v  0.62285686 -0.43501824 -0.06611634
v  0.60576719 -0.6237303 -0.056492727
v  0.29560626 -0.62373018 -0.056282859
v  0.28158468 -0.56044924 -0.066684566
v  0.29563683 -0.3717373 -0.05629025
v  0.3137452 -0.30510741 -0.038496699
v  0.25706518 -0.340455 -0.038496703
v  0.2135729 -0.60894656 -0.038496736
v  0.64410067 -0.65501261 -0.03849674
v  0.68759286 -0.60894674 -0.038496736

# 0 UV coordinates

# 262 vertex normals
vn 0.1357643 0.11520373 0.98402035
vn 0.25918213 0.085332252 0.96205145
vn 2.7858937e-07 7.5200646e-09 1
vn 1.7756518e-07 1.7011573e-08 1
vn 0.13767067 0.16939172 0.97588593
vn 7.6541006e-08 2.6503081e-08 1
vn 0.012688496 0.41059002 0.91173178
vn 0.0025806958 0.41074389 0.9117471
vn -0.095947325 0.39444268 0.91389781
vn -0.10861543 0.38991353 0.91442347
vn -0.10334256 -0.39544085 0.91265929
vn -0.0027919742 -0.41293731 0.9107551
vn -0.012089455 -0.41272515 0.91077542
vn -0.13228935 -0.38380855 0.91388756
vn 0.096527055 -0.39730999 0.91259372
vn 0.11012851 -0.3925249 0.91312414
vn 0.10276607 0.39430395 0.91321599
vn 0.13243623 0.38269129 0.91433471
vn 0.19442414 0.3473652 0.91735309
vn 0.23956123 0.29567328 0.92476362
vn 0.19016524 -0.35002077 0.91723651
vn 0.23105745 -0.3083733 0.92277753
vn -0.19478194 -0.34744811 0.91724575
vn -0.24366367 -0.29162779 0.92497641
vn -0.18866581 0.34694818 0.91871226
vn -0.22864629 0.30603161 0.92415679
vn -0.24524811 0.30175656 0.92130136
vn -0.28714293 0.23623252 0.92830122
vn -0.3282696 0.12666234 0.93605328
vn -0.31591395 0.16812323 0.93377352
vn -0.34340549 0.014526248 0.93907487
vn -0.34356299 0.0053053177 0.93911469
vn -0.33052483 -0.11513923 0.93674773
vn -0.32358885 -0.14175895 0.93551838
vn -0.29045951 -0.22784308 0.92936581
vn -0.24625927 -0.30300054 0.92062306
vn 0.24748918 -0.30451459 0.91979349
vn 0.28986791 -0.23800585 0.92700052
vn 0.31873038 -0.16926627 0.93260914
vn 0.33112362 -0.12720932 0.93497324
vn 0.33687717 -0.01731129 0.94138944
vn 0.33817756 -0.027578255 0.94067812
vn 0.30945778 0.14093256 0.94041157
vn 1 0.00029663605 4.4744531e-11
vn 0.99680179 -0.079914361 -1.2705963e-08
vn 0.99680179 -0.079914339 -1.2705959e-08
vn 1 0.00029663608 4.4744545e-11
vn 0.42699996 0.90425164 1.3325194e-07
vn 0.52916491 0.84851891 1.2701636e-07
vn 0.52916491 0.84851903 1.2701636e-07
vn 0 1 -4.3711388e-08
vn 0.21399313 0.97683525 4.739135e-08
vn 0.21399313 0.97683513 4.7391357e-08
vn -0.95049638 0.31073549 2.8192098e-09
vn -0.81734735 0.57614523 -2.5184107e-08
vn -0.95049638 0.31073549 2.8192115e-09
vn -0.95049661 -0.31073478 -1.2130738e-07
vn -1 2.2103067e-07 -2.9547984e-08
vn -1 2.6908083e-07 -2.9547968e-08
vn -0.95049661 -0.31073466 -1.2130735e-07
vn -0.42700014 -0.90425152 -1.4353708e-07
vn -0.6333487 -0.77386653 3.382678e-08
vn -0.42700016 -0.90425158 -1.4353708e-07
vn -0.2139934 -0.97683507 -5.2721799e-07
vn -0.21399343 -0.97683519 -5.2721799e-07
vn -4.2455332e-07 -1 -7.3009443e-07
vn -4.2455335e-07 -1 -7.3009443e-07
vn 0.2139926 -0.97683525 -5.2994801e-07
vn 0.21399261 -0.97683531 -5.2994801e-07
vn 0.42699933 -0.90425193 -1.462694e-07
vn 0.42699936 -0.90425193 -1.4626937e-07
vn 0.95049632 -0.31073585 -9.1783889e-08
vn 0.95049632 -0.31073585 -9.1783917e-08
vn -1 -1.4065962e-08 6.1484274e-16
vn -1 -1.4065963e-08 6.1484274e-16
vn 0 0.99999994 -4.3711385e-08
vn 0.99999994 0 0
vn 1 0 0
vn 0.13576436 0.11520405 -0.98402029
vn 1.9604161e-07 2.5592868e-07 -1
vn 3.1369783e-07 2.4581919e-07 -1
vn 0.25918227 0.085332558 -0.96205145
vn 0.13767067 0.1693919 -0.97588575
vn 7.8385391e-08 2.6603817e-07 -1
vn 0.012688475 0.41059059 -0.9117316
vn -0.10861547 0.38991392 -0.91442311
vn -0.095947385 0.39444309 -0.91389757
vn 0.0025807035 0.4107444 -0.91174686
vn -0.012089361 -0.41272533 -0.91077536
vn -0.002791855 -0.41293752 -0.91075504
vn -0.10334261 -0.39544106 -0.91265923
vn -0.13228935 -0.38380873 -0.9138875
vn 0.11012856 -0.39252487 -0.9131242
vn 0.096527122 -0.39731002 -0.91259372
vn 0.10276619 0.39430434 -0.91321582
vn 0.13243628 0.38269159 -0.91433454
vn 0.19442409 0.34736541 -0.91735297
vn 0.23956124 0.29567352 -0.92476356
vn 0.23105751 -0.30837324 -0.92277753
vn 0.19016518 -0.35002047 -0.91723651
vn -0.19478203 -0.3474482 -0.91724575
vn -0.24366377 -0.29162776 -0.92497635
vn -0.22864632 0.30603188 -0.92415649
vn -0.18866582 0.34694856 -0.91871208
vn -0.28714305 0.23623258 -0.9283011
vn -0.24524832 0.30175695 -0.92130131
vn -0.31591406 0.16812338 -0.93377346
vn -0.32826972 0.12666269 -0.93605316
vn -0.34340572 0.014526539 -0.93907481
vn -0.3435632 0.0053056092 -0.93911457
vn -0.32358903 -0.14175887 -0.93551832
vn -0.3305251 -0.11513914 -0.93674773
vn -0.29045969 -0.22784287 -0.92936581
vn -0.24625942 -0.30300051 -0.92062306
vn 0.24748929 -0.30451426 -0.91979349
vn 0.28986812 -0.238006 -0.9270004
vn 0.31873065 -0.16926645 -0.93260908
vn 0.33112386 -0.12720928 -0.93497318
vn 0.33817783 -0.02757803 -0.94067812
vn 0.33687738 -0.017311035 -0.94138938
vn 0.30945796 0.14093295 -0.94041145
vn -0.21399294 0.97683525 5.0121354e-08
vn -0.21399292 0.97683525 5.0121347e-08
vn -0.42699975 0.90425181 1.3883297e-07
vn -0.42699972 0.90425175 1.3883299e-07
vn -0.63334811 0.77386719 5.1758754e-08
vn -0.63334811 0.77386719 5.1758768e-08
vn -0.81734782 -0.5761444 -6.3611047e-08
vn -0.81734788 -0.5761444 -6.3611061e-08
vn 0.63334781 -0.77386725 -9.8525618e-08
vn 0.63334787 -0.77386731 -9.8525611e-08
vn 0.81734705 -0.57614565 -1.9622357e-07
vn 0.81734699 -0.57614571 -1.962236e-07
vn -0.99872047 0.0505706 -1.7976471e-07
vn -0.91462159 -0.40431109 -1.5225227e-07
vn -0.91462153 -0.40431106 -1.5225226e-07
vn -0.99872047 0.050570648 -1.7976473e-07
vn -0.66812974 -0.74404478 -1.6732743e-07
vn -0.66812986 -0.74404472 -1.6732743e-07
vn -0.35725194 -0.93400794 -1.4974523e-07
vn -0.35725194 -0.934008 -1.4974523e-07
vn -0.034462873 -0.99940598 -1.2457789e-07
vn -0.034462772 -0.99940598 -1.2457791e-07
vn 0.28867829 -0.95742619 -7.497021e-08
vn 0.28867832 -0.95742613 -7.4970188e-08
vn 0.6045686 -0.79655308 -8.8072667e-08
vn 0.60456866 -0.79655308 -8.8072667e-08
vn 0.87215322 -0.48923284 -1.3151076e-07
vn 0.87215316 -0.48923278 -1.3151073e-07
vn 0.99872661 -0.05045167 -1.5425513e-07
vn 0.99872649 -0.050451595 -1.5425513e-07
vn 0.91459227 0.40437704 -1.4850242e-07
vn 0.91459233 0.40437707 -1.4850242e-07
vn 0.66811579 0.74405742 -1.3337191e-07
vn 0.66811556 0.74405748 -1.3337191e-07
vn 0.35726929 0.93400145 -9.3883457e-08
vn 0.35726923 0.93400145 -9.388345e-08
vn 0.034508452 0.99940437 6.1418284e-08
vn 0.034508478 0.99940437 6.1418262e-08
vn -0.28860971 0.95744681 1.1566018e-07
vn -0.28860977 0.95744681 1.1566015e-07
vn -0.60448825 0.79661405 -4.3980506e-08
vn -0.87209165 0.48934257 -1.9480824e-07
vn -0.87209159 0.48934254 -1.9480822e-07
vn 0.11999192 0.10240927 0.98747879
vn 0.22406296 0.077996388 0.97144866
vn 0.12208255 0.1502119 0.98108727
vn 3.9982708e-05 8.6149113e-05 0.99999994
vn -0.11850869 2.5735311e-05 0.99295294
vn -0.11598881 -0.14147046 0.9831239
vn -0.00027357222 -0.14403066 0.98957312
vn 0.11877599 0.00035891795 0.99292099
vn 0.11686014 0.14147143 0.98302066
vn 0.00018965933 0.14407447 0.98956692
vn 0.23032457 -0.1283481 0.96461242
vn 0.23744948 -0.0058619804 0.9713822
vn 0.11536161 -0.14138594 0.98320991
vn -0.22919133 0.12796763 0.96493298
vn -0.23933856 1.028072e-05 0.97093606
vn -0.1158224 0.14148569 0.98314136
vn -1.0821126e-05 0.2890209 0.9573229
vn -0.00021695592 0.35480154 0.93494159
vn -0.086967565 0.34198758 0.93567151
vn -0.10369419 0.27797371 0.95497555
vn -0.087013021 -0.34201825 0.93565601
vn -0.00031887076 -0.35486335 0.93491811
vn -0.0003463272 -0.28909257 0.95730108
vn -0.10382885 -0.27798891 0.95495635
vn 0.08649835 -0.34330532 0.93523228
vn 0.10316819 -0.278721 0.95481467
vn 0.086675487 0.3432045 0.9352529
vn 0.1039759 0.27841383 0.95481664
vn 0.16388962 0.31094921 0.93618959
vn 0.19787683 0.24811152 0.94830656
vn 0.22630464 0.12743026 0.96568513
vn 0.16382256 -0.31095317 0.9361999
vn 0.19976832 -0.24529101 0.94864374
vn -0.16329969 -0.30839267 0.93713772
vn -0.19872598 -0.24360493 0.94929689
vn -0.22924069 -0.12795793 0.96492249
vn -0.16328275 0.30838081 0.93714464
vn -0.19868511 0.24360541 0.94930542
vn -0.21682569 0.26678526 0.93904859
vn -0.25450778 0.19894835 0.9463855
vn -0.28316289 0.1046777 0.9533422
vn -0.2934958 6.4151095e-06 0.95596039
vn -0.28317168 -0.10466927 0.95334053
vn -0.25451547 -0.19894566 0.94638389
vn -0.21682179 -0.26678035 0.93905079
vn 0.21959342 -0.27019122 0.93743026
vn 0.25734401 -0.20058224 0.9452728
vn 0.286046 -0.10547078 0.95239353
vn 0.28977245 -0.0096142162 0.95704722
vn 0.11999194 0.10240947 -0.98747873
vn 0.22406292 0.077996604 -0.97144854
vn 0.12208262 0.15021217 -0.98108715
vn -0.11598877 -0.14147019 -0.98312396
vn -0.11850867 2.6022288e-05 -0.99295306
vn 3.9958843e-05 8.6410088e-05 -0.99999994
vn -0.00027360086 -0.14403041 -0.98957324
vn 0.11686014 0.14147161 -0.98302066
vn 0.11877598 0.00035921452 -0.99292099
vn 0.00018964977 0.14407474 -0.9895668
vn 0.23032461 -0.1283479 -0.96461254
vn 0.11536159 -0.14138566 -0.98320997
vn 0.23744951 -0.005861673 -0.9713822
vn -0.22919129 0.12796786 -0.96493292
vn -0.11582237 0.14148593 -0.9831413
vn -0.23933855 1.058489e-05 -0.97093618
vn -1.0846189e-05 0.28902119 -0.95732266
vn -0.10369416 0.27797401 -0.95497537
vn -0.086967535 0.34198782 -0.93567145
vn -0.00021700154 0.35480183 -0.93494141
vn -0.00034635104 -0.28909236 -0.95730114
vn -0.00031889108 -0.35486329 -0.93491828
vn -0.087013006 -0.3420181 -0.93565613
vn -0.1038288 -0.2779887 -0.95495641
vn 0.10316813 -0.27872086 -0.95481473
vn 0.086498305 -0.34330523 -0.9352324
vn 0.086675443 0.34320486 -0.93525285
vn 0.10397588 0.2784141 -0.95481652
vn 0.16388953 0.31094939 -0.93618941
vn 0.19787683 0.24811167 -0.94830644
vn 0.22630467 0.12743047 -0.96568507
vn 0.19976833 -0.24529088 -0.9486438
vn 0.1638225 -0.31095299 -0.93620002
vn -0.16329959 -0.30839247 -0.93713778
vn -0.19872595 -0.24360476 -0.94929701
vn -0.2292407 -0.12795767 -0.96492255
vn -0.19868509 0.24360561 -0.9493053
vn -0.16328263 0.30838099 -0.93714458
vn -0.25450778 0.19894849 -0.94638538
vn -0.21682586 0.26678559 -0.93904847
vn -0.28316286 0.10467792 -0.9533422
vn -0.29349583 6.7106203e-06 -0.95596039
vn -0.28317171 -0.10466903 -0.95334053
vn -0.25451556 -0.19894543 -0.94638389
vn -0.21682183 -0.26678014 -0.93905085
vn 0.21959358 -0.27019095 -0.93743032
vn 0.25734413 -0.20058213 -0.94527292
vn 0.28604606 -0.10547055 -0.95239365
vn 0.28977245 -0.0096139256 -0.95704734

# Mesh 'MusicalNote1' with 86 faces
g MusicalNote1
usemtl MusicalNote1
f  1//1 2//2 3//3 4//4
f  5//5 1//1 4//4 6//6
f  7//7 8//8 9//9 10//10
f  11//11 12//12 13//13 14//14
f  13//13 12//12 15//15 16//16
f  17//17 8//8 7//7 18//18
f  19//19 17//17 18//18 20//20
f  16//16 15//15 21//21 22//22
f  23//23 11//11 14//14 24//24
f  10//10 9//9 25//25 26//26
f  26//26 25//25 27//27 28//28
f  28//28 29//29 30//30 26//26
f  31//31 30//30 29//29 32//32
f  33//33 34//34 31//31 32//32
f  34//34 33//33 35//35 24//24
f  36//36 23//23 24//24 35//35
f  37//37 38//38 22//22 21//21
f  39//39 22//22 38//38 40//40
f  40//40 41//41 42//42 39//39
f  2//2 43//43 42//42 41//41
f  43//43 2//2 1//1 20//20
f  5//5 19//19 20//20 1//1
f  2//44 41//45 44//46 45//47
f  19//48 5//49 46//50 47//48
f  8//51 17//52 48//53 49//51
f  29//54 28//55 50//55 51//56
f  33//57 32//58 52//59 53//60
f  23//61 36//62 54//62 55//63
f  11//64 56//65 57//66 12//67
f  15//68 58//69 59//70 21//71
f  40//72 60//73 44//46 41//45
f  5//74 6//74 61//75 46//74
f  6//51 4//76 62//76 61//51
f  45//47 63//77 3//78 2//44
f  64//79 62//80 63//81 45//82
f  46//83 61//84 62//80 64//79
f  62//76 4//76 3//51 63//51
f  65//85 66//86 67//87 49//88
f  68//89 57//90 56//91 69//92
f  68//89 70//93 58//94 57//90
f  65//85 49//88 48//95 71//96
f  71//96 48//95 47//97 72//98
f  70//93 73//99 59//100 58//94
f  69//92 56//91 55//101 74//102
f  66//86 75//103 76//104 67//87
f  75//103 50//105 77//106 76//104
f  50//105 75//103 78//107 51//108
f  79//109 52//110 51//108 78//107
f  79//109 80//111 53//112 52//110
f  81//113 53//112 80//111 74//102
f  74//102 55//101 54//114 81//113
f  82//115 59//100 73//99 83//116
f  84//117 60//118 83//116 73//99
f  60//118 84//117 85//119 44//120
f  85//119 86//121 45//82 44//120
f  64//79 45//82 86//121 72//98
f  72//98 47//97 46//83 64//79
f  19//48 47//48 48//53 17//52
f  8//51 49//51 67//122 9//123
f  9//123 67//122 76//124 25//125
f  25//125 76//124 77//126 27//127
f  27//127 77//126 50//55 28//55
f  29//54 51//56 52//59 32//58
f  33//57 53//60 81//128 35//129
f  35//129 81//128 54//62 36//62
f  11//64 23//61 55//63 56//65
f  15//68 12//67 57//66 58//69
f  37//130 21//71 59//70 82//131
f  37//130 82//131 83//132 38//133
f  38//133 83//132 60//73 40//72
f  42//134 43//135 86//136 85//137
f  43//135 20//138 72//139 86//136
f  20//138 18//140 71//141 72//139
f  18//140 7//142 65//143 71//141
f  7//142 10//144 66//145 65//143
f  10//144 26//146 75//147 66//145
f  26//146 30//148 78//149 75//147
f  30//148 31//150 79//151 78//149
f  31//150 34//152 80//153 79//151
f  34//152 24//154 74//155 80//153
f  24//154 14//156 69//157 74//155
f  14//156 13//158 68//159 69//157
f  13//158 16//160 70//161 68//159
f  16//160 22//162 73//162 70//161
f  22//162 39//163 84//164 73//162
f  39//163 42//134 85//137 84//164

# Mesh 'MusicalNote2' with 102 faces
g MusicalNote2
usemtl MusicalNote2
f  87//165 88//166 89//3 90//4
f  91//167 87//165 90//4 92//6
f  93//168 94//169 95//170 96//171
f  93//168 97//172 98//173 99//174
f  100//175 101//176 97//172 102//177
f  103//178 104//179 94//169 105//180
f  106//181 107//182 108//183 109//184
f  99//174 106//181 109//184 105//180
f  93//168 99//174 105//180 94//169
f  110//185 111//186 112//187 113//188
f  113//188 112//187 96//171 95//170
f  112//187 111//186 114//189 115//190
f  96//171 112//187 115//190 102//177
f  93//168 96//171 102//177 97//172
f  116//191 107//182 106//181 117//192
f  117//192 106//181 99//174 98//173
f  118//193 116//191 117//192 119//194
f  119//194 117//192 98//173 120//195
f  120//195 98//173 97//172 101//176
f  115//190 114//189 121//196 122//197
f  102//177 115//190 122//197 100//175
f  123//198 110//185 113//188 124//199
f  124//199 113//188 95//170 125//200
f  125//200 95//170 94//169 104//179
f  109//184 108//183 126//201 127//202
f  105//180 109//184 127//202 103//178
f  127//202 126//201 128//203 129//204
f  129//204 130//205 103//178 127//202
f  104//179 103//178 130//205 131//206
f  132//207 125//200 104//179 131//206
f  125//200 132//207 133//208 124//199
f  134//209 123//198 124//199 133//208
f  135//210 136//211 122//197 121//196
f  100//175 122//197 136//211 137//212
f  137//212 138//213 101//176 100//175
f  88//166 120//195 101//176 138//213
f  120//195 88//166 87//165 119//194
f  91//167 118//193 119//194 87//165
f  88//44 138//45 139//46 140//47
f  118//48 91//49 141//50 142//48
f  107//51 116//52 143//53 144//51
f  130//54 129//55 145//55 146//56
f  132//57 131//58 147//59 148//60
f  123//61 134//62 149//62 150//63
f  110//64 151//65 152//66 111//67
f  114//68 153//69 154//70 121//71
f  137//72 155//73 139//46 138//45
f  91//74 92//74 156//75 141//74
f  92//51 90//76 157//76 156//51
f  140//47 158//77 89//78 88//44
f  159//214 157//80 158//81 140//215
f  141//216 156//84 157//80 159//214
f  157//76 90//76 89//51 158//51
f  160//217 161//218 162//219 163//220
f  164//221 165//222 162//219 166//223
f  167//224 168//225 165//222 169//226
f  170//227 171//228 161//218 172//229
f  173//230 174//231 175//232 144//233
f  166//223 171//228 174//231 173//230
f  162//219 161//218 171//228 166//223
f  176//234 152//235 151//236 177//237
f  163//220 176//234 177//237 160//217
f  176//234 178//238 153//239 152//235
f  163//220 168//225 178//238 176//234
f  162//219 165//222 168//225 163//220
f  173//230 144//233 143//240 179//241
f  166//223 173//230 179//241 164//221
f  179//241 143//240 142//242 180//243
f  164//221 179//241 180//243 181//244
f  165//222 164//221 181//244 169//226
f  178//238 182//245 154//246 153//239
f  168//225 167//224 182//245 178//238
f  177//237 151//236 150//247 183//248
f  160//217 177//237 183//248 184//249
f  161//218 160//217 184//249 172//229
f  174//231 185//250 186//251 175//232
f  171//228 170//227 185//250 174//231
f  185//250 145//252 187//253 186//251
f  145//252 185//250 170//227 146//254
f  172//229 147//255 146//254 170//227
f  172//229 184//249 148//256 147//255
f  188//257 148//256 184//249 183//248
f  183//248 150//247 149//258 188//257
f  189//259 154//246 182//245 190//260
f  167//224 155//261 190//260 182//245
f  155//261 167//224 169//226 139//262
f  169//226 181//244 140//215 139//262
f  159//214 140//215 181//244 180//243
f  180//243 142//242 141//216 159//214
f  118//48 142//48 143//53 116//52
f  107//51 144//51 175//122 108//123
f  108//123 175//122 186//124 126//125
f  126//125 186//124 187//126 128//127
f  128//127 187//126 145//55 129//55
f  130//54 146//56 147//59 131//58
f  132//57 148//60 188//128 133//129
f  133//129 188//128 149//62 134//62
f  110//64 123//61 150//63 151//65
f  114//68 111//67 152//66 153//69
f  135//130 121//71 154//70 189//131
f  135//130 189//131 190//132 136//133
f  136//133 190//132 155//73 137//72

